<svg id="Layer_4_copy_2" data-name="Layer 4 copy 2" xmlns="http://www.w3.org/2000/svg" viewBox="0 0 422.03 556.53"><defs><style>.cls-1{fill:#1e1e1e;}</style></defs><title>logo</title><path class="cls-1" d="M1142.19,320.14c-88.59-97.32-233.26-43.64-233.26-43.64S793.12,304,776.49,372.28l-6.37,19-3.62,51.54L749,485.41s7.84,23.74,15.1,30.4,5.41,103.11,24.29,137.94c0,0-5.32,94.22-2.5,104.67,0,0,8.09,48.09,27.35,59.84,0,0,55.41-23.57,88.11-73.76,0,0-38,9.38-35-33.93,0,0,27.56-132.11,42.14-144.09s107.65-53.47,178.42-28.61C1086.89,537.87,1230.79,417.46,1142.19,320.14ZM830.63,652c-3.34,10.74-13.94,21.23-23,28.6a7.81,7.81,0,0,1-12.73-6.73l1.47-17a7.91,7.91,0,0,1,.24-1.36l25.82-95.87a7.81,7.81,0,0,1,13-3.56,94.78,94.78,0,0,1,9.29,10.9C853.55,575.25,830.63,652,830.63,652Zm103-141.37L904.79,524.1c-15.48-7.32-55.95-9.32-55.95-9.32l-15.43-23.13L899.91,457c33.21-1.49,65.74,11.57,65.74,11.57C959.91,485.67,933.6,510.58,933.6,510.58Z" transform="translate(-748.99 -261.74)"/><path class="cls-1" d="M919,580.81l-37,134s1,19,29,12l49-167S924,562.81,919,580.81Z" transform="translate(-748.99 -261.74)"/></svg>